<?xml version="1.0" ?><svg style="enable-background:new 0 0 48 48.00004;" version="1.1" viewBox="0 0 48 48.00004" xml:space="preserve" xmlns="http://www.w3.org/2000/svg" xmlns:xlink="http://www.w3.org/1999/xlink"><g id="Icons"><g><path d="M20.3989,25.7779l-0.1199,1.38902l-5.41036,1.43464    c-2.93311,0.77787-5.24581,2.63938-6.24094,5.02355l-1.45044,3.47521c0,0,16.12391,6.03304,33.64545,0.02774l-1.45044-3.47519    c-0.99513-2.38414-3.30783-4.24567-6.24094-5.02354l-5.41036-1.43475l-0.10912-1.34502" style="fill:#F43735;"/><path d="M27.48095,27.3511c0.00006,3.71776-7.2019,3.68159-7.20197-0.03129V25.7779h7.20197V27.3511z" style="fill:#DDBEA8;"/><path d="M29.91489,21.92622c0.86161,0.15279,1.76407-0.56269,2.01562-1.59789    c0.25167-1.03531-0.22161-2.35191-1.08333-2.50469l0.09409-3.67656c0-7.91592-13.9335-7.91592-13.9335,0l0.10552,3.63442    c-0.80292,0.15279-1.26378,1.51153-1.02932,2.54684c0.23446,1.0352,1.07538,1.75067,1.8783,1.59789" style="fill:#464747;"/><path d="M18.38568,15.53784l-0.07504,3.34776l-1.1979-1.06195c0,0-1.33747,0.42386-1.16344,2.14962    c0,0,0.17407,1.79168,1.90587,1.97351c0,0,0.72693,2.81159,2.92908,4.20131c2.20216,1.38971,7.21712,1.79343,9.0605-4.08487    c0,0,1.44526,0.07767,1.93295-1.2968c0.4877-1.37447,0.1408-2.52913-0.9258-3.12771l-1.32316,1.53638v-3.63725H18.38568z" style="fill:#F9D9C0;"/><path d="    M20.3989,25.7779l-0.1199,1.38902l-5.41036,1.43464c-2.93311,0.77787-5.24581,2.63938-6.24094,5.02355l-1.45044,3.47521    c0,0,16.12391,6.03304,33.64545,0.02774l-1.45044-3.47519c-0.99513-2.38414-3.30783-4.24567-6.24094-5.02354l-5.41036-1.43475    l-0.10912-1.34502" style="fill:none;stroke:#303030;stroke-width:0.8;stroke-linecap:round;stroke-linejoin:round;stroke-miterlimit:10;"/><path d="    M29.91489,21.92622c0.86161,0.15279,1.76407-0.56269,2.01562-1.59789c0.25167-1.03531-0.22161-2.35191-1.08333-2.50469    l0.09409-3.67656c0-7.91592-13.9335-7.91592-13.9335,0l0.10552,3.63442c-0.80292,0.15279-1.26378,1.51153-1.02932,2.54684    c0.23446,1.0352,1.07538,1.75067,1.8783,1.59789" style="fill:none;stroke:#303030;stroke-width:0.8;stroke-linecap:round;stroke-linejoin:round;stroke-miterlimit:10;"/><path d="    M17.96227,21.92622c0.78713,2.88527,3.14361,5.16128,5.93351,5.16128c2.8413,0,5.23742-2.17296,5.97958-5.1407" style="fill:none;stroke:#303030;stroke-width:0.8;stroke-linecap:round;stroke-linejoin:round;stroke-miterlimit:10;"/><polyline points="    17.11275,17.78117 18.31064,18.96818 18.31064,15.53784 26.21676,15.53784 29.63621,15.53784 29.63621,16.39814     29.63621,19.17509 30.845,17.82473   " style="fill:none;stroke:#303030;stroke-width:0.8;stroke-linecap:round;stroke-linejoin:round;stroke-miterlimit:10;"/><path d="    M20.27899,27.16691c0.00006,3.84384,7.44208,3.87657,7.44202,0.02766" style="fill:none;stroke:#303030;stroke-width:0.8;stroke-linecap:round;stroke-linejoin:round;stroke-miterlimit:10;"/></g></g></svg>